<?xml version="1.0" standalone="no"?>
<!DOCTYPE svg PUBLIC "-//W3C//DTD SVG 20010904//EN"
 "http://www.w3.org/TR/2001/REC-SVG-20010904/DTD/svg10.dtd">
<svg version="1.0" xmlns="http://www.w3.org/2000/svg"
 width="1080.000000pt" height="1080.000000pt" viewBox="0 0 1080.000000 1080.000000"
 preserveAspectRatio="xMidYMid meet">
<metadata>
Created by potrace 1.14, written by Peter Selinger 2001-2017
</metadata>
<g transform="translate(0.000000,1080.000000) scale(0.100000,-0.100000)"
fill="#000000" stroke="none">
<path d="M6765 10450 c3 -5 -1 -10 -10 -10 -10 0 -13 -5 -9 -12 5 -7 3 -8 -6
-3 -7 4 -106 8 -221 9 -175 1 -210 -1 -214 -14 -5 -13 -7 -13 -15 0 -9 13 -10
13 -10 0 0 -13 -1 -13 -10 0 -6 9 -10 11 -10 3 0 -7 -7 -10 -15 -7 -8 4 -15 1
-15 -5 0 -6 -5 -11 -11 -11 -5 0 -8 3 -5 8 6 10 -59 6 -76 -4 -20 -13 -68 -13
-68 0 0 6 -5 4 -10 -4 -5 -8 -10 -11 -10 -6 0 5 -7 3 -15 -4 -8 -6 -20 -8 -26
-4 -8 4 -9 3 -5 -4 4 -7 2 -12 -3 -12 -6 0 -11 5 -11 12 0 9 -3 9 -12 0 -7 -7
-25 -12 -40 -12 -16 0 -28 -6 -28 -12 0 -10 -3 -9 -9 1 -6 10 -10 10 -16 1 -6
-9 -9 -9 -15 0 -6 9 -11 6 -20 -10 -9 -16 -14 -19 -20 -10 -6 9 -12 9 -29 1
-16 -9 -21 -9 -21 0 0 8 -4 9 -13 0 -8 -6 -22 -12 -33 -14 -10 -1 -25 -6 -31
-10 -8 -5 -13 -3 -13 3 0 7 -6 8 -19 1 -10 -6 -21 -7 -25 -4 -3 3 -6 1 -6 -6
0 -9 -5 -9 -20 -1 -15 8 -20 8 -20 -1 0 -7 -10 -9 -25 -7 -14 3 -29 0 -33 -6
-4 -6 -16 -12 -27 -13 -26 -2 -63 -10 -74 -17 -5 -4 -12 0 -14 6 -4 10 -6 10
-6 1 -1 -7 -8 -10 -16 -7 -8 4 -15 1 -15 -6 0 -8 -9 -11 -25 -8 -14 3 -25 1
-25 -6 0 -6 -5 -4 -10 4 -7 11 -10 11 -10 2 0 -10 -5 -10 -20 -2 -15 8 -20 8
-20 -1 0 -6 -7 -9 -15 -5 -8 3 -15 0 -15 -6 0 -7 -5 -6 -15 2 -11 9 -15 9 -15
1 0 -8 -5 -9 -19 -2 -10 6 -21 7 -25 4 -12 -12 -46 -13 -46 -2 0 8 -5 8 -15
-1 -11 -9 -15 -9 -15 -1 0 7 -5 9 -12 5 -20 -13 -48 -12 -59 2 -8 10 -18 10
-50 -1 -22 -8 -38 -11 -35 -7 2 4 -4 8 -14 8 -10 0 -17 -3 -15 -6 2 -3 -5 -6
-15 -6 -10 0 -16 4 -14 8 3 4 0 8 -5 8 -6 0 -11 -5 -11 -11 0 -8 -5 -8 -15 1
-12 10 -15 10 -15 0 0 -10 -3 -10 -15 0 -10 9 -15 9 -15 1 0 -6 -5 -11 -11
-11 -5 0 -7 6 -3 13 5 8 2 8 -9 -2 -13 -10 -17 -10 -17 -1 0 9 -4 9 -17 -1
-15 -12 -16 -12 -8 1 6 12 5 13 -6 3 -7 -7 -21 -13 -30 -13 -10 0 -20 -6 -23
-12 -5 -10 -7 -10 -12 0 -5 10 -9 10 -22 0 -13 -11 -14 -11 -7 2 8 13 6 13 -8
2 -9 -8 -21 -11 -26 -8 -5 4 -12 2 -16 -3 -3 -5 -14 -8 -25 -6 -11 2 -20 0
-20 -5 0 -4 -13 -7 -30 -6 -16 1 -30 -1 -30 -5 0 -4 -9 -6 -20 -4 -11 2 -20 0
-20 -4 0 -5 -12 -6 -26 -3 -16 3 -25 1 -21 -5 3 -5 -6 -8 -24 -5 -16 2 -29 0
-29 -6 0 -5 -13 -9 -30 -8 -16 1 -30 -1 -30 -4 0 -8 -15 -11 -64 -13 -19 -1
-32 -6 -28 -11 3 -5 -2 -7 -11 -3 -10 4 -17 2 -17 -4 0 -6 -7 -9 -15 -5 -8 3
-15 0 -15 -7 0 -8 -4 -6 -10 3 -6 10 -10 11 -10 2 0 -6 -3 -11 -7 -11 -20 3
-34 -2 -28 -11 3 -5 1 -10 -4 -10 -6 0 -11 6 -11 13 0 9 -3 8 -9 -2 -7 -11 -9
-11 -14 0 -4 11 -6 11 -6 1 -1 -7 -5 -10 -11 -7 -5 3 -10 1 -10 -6 0 -6 -8 -9
-20 -6 -12 3 -18 1 -14 -5 4 -6 -1 -8 -14 -4 -13 5 -22 1 -26 -11 -6 -15 -8
-15 -16 -3 -7 11 -10 12 -10 2 0 -7 -4 -11 -9 -8 -5 3 -14 -1 -21 -9 -6 -7
-18 -11 -26 -8 -8 3 -20 0 -28 -6 -7 -6 -16 -8 -19 -4 -4 3 -7 1 -7 -5 0 -6
-7 -9 -15 -6 -8 4 -15 1 -15 -6 0 -6 -4 -8 -10 -5 -5 3 -10 1 -10 -5 0 -6 -5
-8 -10 -5 -6 4 -17 1 -25 -5 -8 -6 -19 -9 -25 -5 -5 3 -10 1 -10 -4 0 -6 -7
-11 -16 -11 -9 0 -12 -5 -8 -12 5 -9 3 -9 -9 1 -14 11 -18 11 -23 -3 -3 -9
-10 -13 -15 -10 -5 3 -9 0 -9 -6 0 -7 -7 -10 -15 -6 -8 3 -15 1 -15 -4 0 -6
-9 -10 -19 -10 -11 0 -26 -7 -34 -15 -8 -8 -17 -11 -20 -8 -4 3 -23 -3 -44
-13 -21 -10 -41 -17 -46 -16 -4 1 -7 -3 -7 -9 0 -5 -4 -7 -10 -4 -5 3 -10 1
-10 -4 0 -6 -3 -10 -7 -9 -5 1 -23 -6 -40 -15 -18 -10 -33 -14 -33 -10 0 5 -6
1 -13 -7 -7 -8 -43 -31 -80 -50 -83 -43 -101 -53 -118 -67 -8 -6 -18 -12 -24
-13 -22 -5 -41 -12 -55 -20 -8 -5 -47 -26 -87 -46 -40 -21 -69 -42 -66 -47 3
-6 1 -7 -5 -3 -6 3 -17 0 -24 -8 -8 -7 -23 -16 -33 -20 -11 -3 -32 -17 -48
-31 -15 -15 -33 -23 -40 -19 -6 4 -9 4 -5 -1 5 -5 -7 -17 -25 -29 -31 -20 -37
-22 -57 -25 -5 0 -6 -8 -3 -18 4 -11 3 -14 -5 -9 -6 4 -20 -2 -32 -14 -11 -11
-22 -20 -25 -20 -17 -1 -34 -13 -29 -21 5 -8 -9 -13 -28 -10 -5 0 -8 -6 -8
-15 0 -8 -4 -12 -10 -9 -5 3 -10 1 -10 -4 0 -6 -6 -11 -14 -11 -8 0 -16 -7
-20 -15 -3 -8 -9 -14 -13 -14 -15 4 -43 -13 -37 -22 3 -5 -1 -9 -8 -9 -7 0
-25 -11 -40 -25 -15 -14 -31 -25 -37 -25 -5 0 -19 -12 -30 -26 -12 -15 -21
-23 -21 -19 0 5 -9 -2 -20 -15 -11 -13 -20 -19 -20 -14 -1 5 -7 -2 -15 -16 -8
-14 -14 -21 -15 -17 0 4 -11 -3 -23 -17 -13 -14 -27 -23 -30 -20 -3 3 -8 -4
-12 -15 -3 -12 -13 -21 -21 -21 -8 0 -12 -4 -9 -10 3 -5 2 -10 -2 -10 -5 0
-20 -11 -35 -24 -14 -14 -29 -22 -32 -19 -3 4 -6 1 -6 -5 0 -13 -58 -72 -71
-72 -5 0 -9 -4 -9 -8 0 -5 -11 -15 -25 -22 -14 -7 -23 -15 -21 -17 2 -3 -18
-26 -46 -53 -27 -27 -48 -50 -47 -52 5 -6 -50 -56 -55 -50 -3 3 -6 -2 -6 -12
0 -9 -4 -14 -10 -11 -5 3 -10 0 -10 -8 0 -8 -18 -33 -40 -56 -22 -22 -40 -46
-40 -52 0 -5 -4 -8 -9 -4 -5 3 -12 -4 -16 -15 -3 -11 -10 -20 -15 -20 -5 0
-12 -9 -15 -20 -4 -11 -10 -18 -15 -15 -4 3 -13 -9 -19 -26 -6 -18 -15 -28
-21 -24 -7 4 -10 1 -8 -6 1 -8 -15 -33 -37 -55 -59 -61 -67 -73 -59 -87 4 -6
4 -9 -1 -5 -9 8 -35 -15 -35 -32 0 -6 -11 -21 -25 -34 -13 -13 -22 -26 -18
-29 3 -4 -1 -7 -11 -7 -9 0 -14 -5 -11 -10 3 -6 -1 -13 -9 -16 -9 -3 -14 -9
-11 -14 2 -4 -5 -17 -16 -28 -11 -12 -16 -22 -12 -22 4 0 0 -5 -10 -11 -9 -6
-15 -14 -12 -20 4 -5 1 -9 -4 -9 -6 0 -11 -7 -11 -16 0 -8 -4 -12 -10 -9 -5 3
-10 -1 -10 -9 0 -9 0 -18 0 -21 0 -3 -10 -16 -21 -29 -12 -13 -21 -27 -20 -30
2 -10 -34 -43 -41 -39 -4 2 -5 -3 -2 -11 3 -9 -4 -27 -15 -42 -12 -15 -21 -33
-21 -40 0 -8 -4 -14 -10 -14 -5 0 -10 -7 -10 -15 0 -8 -5 -15 -11 -15 -5 0 -7
-4 -4 -10 3 -5 1 -10 -4 -10 -6 0 -10 -3 -9 -7 3 -14 -14 -43 -22 -38 -4 3
-10 -2 -14 -10 -3 -8 0 -15 7 -15 7 0 1 -10 -13 -21 -14 -11 -18 -18 -10 -14
8 4 5 -3 -8 -14 -13 -11 -21 -25 -17 -31 3 -5 1 -10 -4 -10 -6 0 -11 -7 -11
-15 0 -8 -4 -15 -10 -15 -5 0 -7 -7 -4 -15 4 -8 1 -15 -5 -15 -6 0 -11 -9 -11
-19 0 -11 -5 -23 -10 -26 -6 -4 -8 -11 -5 -16 4 -5 1 -9 -6 -9 -7 0 -9 -3 -6
-6 4 -4 -3 -20 -14 -35 -11 -16 -17 -34 -13 -40 4 -8 3 -9 -4 -5 -11 6 -16 -6
-13 -26 0 -5 -4 -8 -10 -8 -5 0 -7 -4 -4 -10 3 -5 2 -10 -4 -10 -6 0 -7 -7 -4
-17 5 -12 3 -14 -7 -8 -10 6 -12 4 -7 -9 4 -10 1 -19 -8 -22 -8 -4 -12 -10 -9
-15 3 -6 0 -16 -6 -24 -6 -8 -8 -20 -4 -26 4 -7 3 -9 -3 -6 -6 4 -15 -5 -22
-19 -6 -14 -7 -23 -1 -19 6 3 7 -1 4 -9 -3 -9 -9 -16 -13 -16 -4 0 -8 -10 -8
-22 -1 -13 -7 -24 -13 -26 -5 -2 -10 -12 -10 -21 0 -10 -3 -21 -7 -25 -4 -3
-8 -16 -10 -28 -2 -12 -8 -25 -15 -29 -6 -4 -7 -12 -4 -18 4 -6 2 -11 -4 -11
-6 0 -9 -4 -6 -9 4 -5 0 -12 -6 -14 -10 -4 -10 -6 0 -6 10 -1 10 -5 0 -23 -14
-27 -19 -46 -19 -71 0 -10 -5 -15 -11 -11 -7 5 -9 1 -5 -9 3 -10 2 -17 -4 -17
-6 0 -8 -4 -4 -9 3 -5 -2 -17 -11 -25 -8 -9 -11 -16 -6 -16 5 0 7 -11 4 -25
-2 -14 -8 -23 -12 -20 -4 3 -10 -4 -13 -15 -3 -11 -1 -22 4 -26 5 -3 2 -16 -7
-30 -9 -13 -13 -24 -8 -24 4 0 3 -5 -4 -12 -16 -16 -15 -31 1 -22 13 9 -11
-26 -28 -38 -6 -5 -5 -8 4 -8 10 0 11 -3 2 -13 -8 -10 -7 -17 1 -25 9 -9 8
-12 -6 -12 -9 0 -14 -4 -11 -10 3 -5 0 -10 -7 -10 -8 0 -9 -3 -3 -8 14 -10 17
-32 4 -32 -5 0 -8 -4 -5 -9 3 -5 -1 -12 -9 -15 -12 -4 -13 -10 -6 -24 5 -10 6
-24 1 -32 -4 -7 -6 -20 -2 -28 3 -9 1 -13 -5 -9 -6 4 -13 -2 -16 -13 -3 -11
-1 -20 5 -20 6 0 7 -8 3 -17 -4 -10 -8 -24 -8 -30 0 -7 -4 -13 -9 -13 -5 0 -6
-4 -3 -10 3 -5 1 -10 -6 -10 -8 0 -8 -4 1 -15 10 -12 10 -15 -1 -15 -12 0 -12
-2 0 -9 9 -6 10 -11 2 -15 -6 -4 -11 -16 -11 -27 0 -11 -3 -18 -7 -16 -5 3 -9
-6 -10 -20 -1 -19 1 -22 8 -12 5 8 9 9 9 4 0 -6 -5 -16 -12 -23 -7 -7 -8 -12
-2 -12 6 0 9 -13 6 -30 -2 -16 -9 -30 -14 -30 -5 0 -6 -4 -3 -10 3 -5 2 -10
-3 -10 -5 0 -9 -7 -9 -15 0 -8 4 -15 9 -15 5 0 4 -9 -2 -19 -7 -14 -6 -21 3
-24 9 -4 9 -6 -1 -6 -7 -1 -10 -5 -7 -11 3 -5 2 -10 -2 -10 -5 0 -8 -12 -8
-27 1 -16 -4 -34 -9 -42 -9 -11 -8 -13 2 -7 11 7 12 4 3 -13 -7 -12 -9 -26 -6
-31 3 -6 2 -10 -4 -10 -6 0 -8 -6 -5 -14 3 -8 0 -17 -6 -21 -9 -6 -9 -10 1
-16 12 -7 12 -9 0 -9 -11 0 -11 -3 -1 -15 10 -12 10 -15 -1 -15 -10 0 -10 -3
-2 -11 9 -9 7 -18 -5 -37 -10 -15 -11 -23 -4 -19 6 5 12 4 12 -2 0 -6 -4 -11
-9 -11 -4 0 -7 -12 -5 -27 1 -15 0 -32 -4 -38 -11 -17 -11 -35 0 -35 6 0 4 -7
-3 -17 -10 -11 -10 -14 -1 -9 6 4 12 2 12 -3 0 -6 -5 -11 -10 -11 -7 0 -7 -6
0 -19 7 -14 7 -22 0 -26 -8 -5 -7 -11 1 -21 7 -9 8 -14 1 -14 -7 0 -8 -10 -2
-30 6 -21 5 -30 -3 -30 -7 0 -6 -4 3 -10 11 -7 11 -10 2 -10 -9 0 -10 -5 -2
-19 7 -14 7 -22 0 -26 -8 -5 -7 -11 1 -21 7 -9 8 -14 1 -14 -7 0 -8 -10 -2
-30 5 -18 5 -30 -1 -30 -5 0 -9 -5 -9 -11 0 -5 6 -7 12 -3 9 5 9 2 -1 -9 -9
-12 -10 -17 -2 -17 9 0 9 -5 1 -20 -8 -15 -8 -20 2 -20 9 0 9 -3 -2 -10 -8 -5
-10 -10 -5 -10 6 0 11 -9 11 -20 0 -11 -4 -20 -8 -20 -4 0 -3 -12 2 -26 6 -15
6 -23 0 -19 -5 3 -7 -4 -3 -17 3 -13 8 -43 10 -68 3 -25 10 -51 15 -57 7 -9 7
-13 -2 -13 -10 0 -10 -3 0 -15 10 -12 10 -15 0 -15 -10 0 -10 -3 0 -15 7 -8 8
-15 3 -15 -5 0 -10 -7 -10 -15 0 -8 3 -15 7 -15 3 0 7 -15 8 -32 2 -18 7 -37
12 -42 5 -5 5 -16 -1 -28 -6 -12 -6 -18 0 -18 7 0 7 -9 2 -22 -6 -17 -4 -26 8
-35 13 -10 13 -12 2 -13 -11 0 -10 -5 4 -20 13 -15 14 -20 5 -20 -11 0 -11 -3
-2 -12 8 -8 8 -17 1 -30 -7 -14 -6 -20 5 -24 9 -3 12 -12 9 -21 -4 -11 -2 -14
5 -9 9 5 9 1 2 -18 -7 -18 -6 -26 1 -26 8 0 8 -4 0 -14 -7 -8 -8 -16 -2 -18 5
-1 11 -12 13 -23 1 -11 8 -23 13 -27 6 -5 5 -8 -4 -8 -11 0 -11 -3 -1 -15 10
-12 10 -15 -1 -15 -9 0 -10 -3 -4 -8 10 -7 17 -27 18 -49 0 -7 4 -13 9 -13 5
0 4 -9 -2 -19 -7 -14 -7 -22 0 -26 6 -4 8 -11 5 -16 -4 -5 1 -12 10 -15 12 -5
13 -9 4 -20 -7 -9 -8 -14 -1 -14 5 0 8 -8 5 -19 -2 -10 2 -25 10 -33 10 -10
12 -19 5 -31 -6 -11 -5 -17 2 -17 6 0 9 -4 5 -9 -3 -5 1 -16 9 -24 11 -11 12
-17 3 -26 -8 -8 -8 -11 3 -11 7 0 10 -3 7 -6 -3 -4 0 -16 8 -27 11 -16 12 -24
2 -36 -9 -12 -9 -13 1 -7 11 6 17 -11 13 -36 0 -5 4 -8 10 -8 5 0 8 -4 4 -9
-3 -5 -1 -12 4 -15 5 -4 8 -14 7 -24 -2 -9 1 -20 6 -23 5 -3 10 -16 11 -27 1
-12 5 -22 10 -22 4 0 6 -4 2 -9 -3 -5 -1 -12 5 -16 6 -4 8 -11 5 -16 -4 -5 -1
-9 5 -9 7 0 9 -8 5 -19 -4 -12 0 -21 12 -25 15 -6 15 -8 3 -16 -10 -7 -11 -10
-2 -10 6 0 12 -9 12 -20 0 -11 5 -20 11 -20 5 0 8 -4 5 -8 -3 -5 2 -21 9 -36
8 -16 12 -32 9 -37 -3 -5 0 -9 6 -9 6 0 8 -4 5 -10 -3 -5 -1 -10 5 -10 7 0 10
-6 7 -14 -3 -8 1 -17 10 -20 8 -4 13 -13 9 -21 -3 -8 -1 -15 5 -15 6 0 7 -5 4
-10 -3 -6 -1 -10 4 -10 6 0 11 -7 11 -15 0 -8 4 -23 9 -33 24 -45 39 -87 35
-94 -3 -4 0 -8 5 -8 6 0 11 -9 11 -20 0 -11 5 -20 11 -20 6 0 8 -7 5 -15 -3
-9 1 -18 9 -21 8 -4 12 -10 9 -15 -3 -5 -1 -9 5 -9 6 0 7 -7 4 -17 -4 -11 -3
-14 5 -9 7 4 12 1 12 -8 0 -9 8 -30 18 -48 10 -18 22 -46 26 -61 3 -15 11 -25
16 -22 6 3 7 -1 4 -9 -3 -9 -1 -16 5 -16 6 0 11 -7 11 -16 0 -8 7 -22 15 -31
8 -8 13 -19 10 -24 -4 -5 -1 -9 4 -9 6 0 11 -7 11 -15 0 -8 5 -15 10 -15 6 0
10 -9 10 -20 0 -11 5 -20 12 -20 6 0 9 -3 5 -6 -3 -4 -1 -12 6 -20 30 -33 35
-42 30 -48 -4 -3 -1 -6 6 -6 7 0 9 -5 6 -10 -3 -6 -2 -10 4 -10 5 0 12 -8 16
-19 3 -10 14 -29 25 -41 11 -12 17 -26 15 -30 -3 -5 -2 -10 3 -12 4 -1 23 -23
42 -48 19 -24 28 -41 20 -36 -8 4 -7 1 4 -8 10 -8 15 -19 12 -24 -3 -6 1 -13
10 -16 8 -3 12 -10 9 -16 -3 -5 -3 -10 2 -10 8 0 47 -62 43 -69 -1 -2 5 -8 14
-13 9 -5 16 -13 16 -18 0 -10 21 -38 52 -72 10 -10 19 -24 20 -30 2 -7 14 -21
28 -30 14 -10 22 -18 18 -18 -4 0 0 -9 9 -19 9 -11 21 -17 26 -14 6 3 7 1 3
-5 -8 -14 63 -104 76 -96 5 3 7 2 6 -3 -4 -14 13 -53 23 -53 6 0 17 -7 25 -15
9 -8 13 -15 9 -15 -3 0 33 -39 80 -87 47 -48 85 -91 85 -95 0 -4 9 -8 20 -8
11 0 19 -3 19 -7 -3 -18 1 -36 7 -31 3 4 18 -7 34 -24 17 -18 34 -27 41 -22 7
4 9 3 5 -4 -3 -6 5 -19 19 -30 13 -11 22 -22 19 -25 -3 -3 4 -8 15 -12 12 -3
21 -13 21 -21 0 -8 6 -14 13 -14 8 0 39 -25 70 -56 32 -30 57 -52 57 -47 0 4
17 -10 36 -32 20 -22 38 -39 41 -37 8 6 52 -35 45 -42 -3 -4 1 -4 10 -1 10 4
22 -2 32 -17 9 -13 19 -22 21 -20 12 6 26 1 21 -7 -5 -8 29 -25 47 -22 4 1 7
-3 7 -7 0 -9 123 -105 136 -105 5 -1 17 -8 27 -17 9 -9 30 -23 45 -31 15 -8
32 -21 39 -29 7 -8 13 -12 13 -8 0 5 11 -2 24 -13 13 -12 26 -19 28 -18 3 2
12 -4 22 -14 10 -9 22 -15 27 -12 5 4 9 1 9 -4 0 -6 6 -11 14 -11 8 0 17 -7
20 -16 4 -9 13 -14 22 -10 8 3 12 2 9 -4 -3 -6 1 -10 10 -10 9 0 14 -4 11 -8
-2 -4 4 -9 15 -10 10 -1 28 -3 39 -4 11 -1 20 -5 20 -8 0 -4 14 -17 31 -29 18
-13 28 -17 24 -10 -7 11 -4 11 11 -1 10 -8 22 -19 26 -25 4 -5 8 -7 8 -2 0 4
11 0 25 -9 14 -9 25 -12 25 -6 0 6 12 0 26 -13 14 -13 29 -24 33 -24 15 2 50
-14 46 -20 -4 -7 3 -9 45 -13 11 -1 20 -6 20 -10 0 -4 6 -8 14 -8 8 0 16 -5
18 -10 2 -6 13 -12 26 -13 12 0 22 -5 22 -9 0 -4 9 -8 20 -8 11 0 20 -4 20
-10 0 -5 9 -10 19 -10 11 0 23 -4 26 -10 3 -5 15 -10 26 -10 10 0 19 -5 19
-12 0 -6 3 -8 7 -5 3 4 13 1 21 -6 13 -10 14 -9 7 3 -7 12 -3 11 18 -2 14 -10
35 -18 47 -18 11 0 20 -4 20 -9 0 -5 13 -8 29 -7 17 1 28 -1 26 -5 -3 -3 7
-11 21 -18 14 -6 23 -7 19 -1 -3 6 1 7 9 4 9 -3 16 -10 16 -14 0 -4 13 -7 29
-6 17 1 28 -1 25 -6 -3 -4 8 -10 23 -13 15 -3 40 -12 56 -20 15 -8 27 -10 27
-5 0 4 9 6 20 3 11 -3 20 -10 20 -15 0 -5 4 -6 10 -3 5 3 10 1 10 -4 0 -6 5
-11 11 -11 5 0 7 5 3 11 -5 8 -1 8 14 0 27 -14 35 -14 27 2 -4 6 2 2 13 -10
20 -23 39 -32 27 -14 -8 14 33 4 61 -14 13 -8 24 -11 24 -6 0 5 14 5 35 0 19
-5 51 -13 70 -18 23 -6 35 -5 35 1 0 6 12 3 26 -7 18 -12 24 -13 19 -4 -4 9
-1 8 7 -1 9 -11 24 -14 55 -10 23 4 40 3 37 -2 -3 -4 0 -8 5 -8 6 0 11 5 11
10 0 6 12 3 26 -6 18 -13 43 -17 85 -15 38 2 66 -2 77 -11 13 -11 15 -11 7 2
-7 13 -6 13 7 2 13 -10 86 -13 325 -13 341 1 353 1 353 14 0 5 7 4 15 -3 8 -7
15 -8 15 -3 0 12 36 16 90 11 46 -4 120 3 115 11 -3 6 3 8 15 6 11 -2 22 0 25
4 6 10 55 9 71 -2 7 -4 15 0 18 9 4 9 9 14 12 11 3 -3 17 -2 31 4 14 5 22 5
19 0 -7 -10 34 -2 49 10 6 4 23 6 38 5 15 -2 27 0 27 5 0 5 6 6 14 3 8 -3 17
0 21 5 3 6 11 9 16 6 5 -4 9 -2 9 3 0 6 9 8 20 5 11 -3 26 0 33 6 8 6 17 8 20
4 4 -3 7 -1 7 5 0 7 5 12 11 12 5 0 8 -4 5 -9 -9 -14 32 0 45 15 9 11 15 11
25 3 11 -9 14 -8 14 0 0 7 4 10 9 6 5 -3 13 0 16 6 4 5 13 8 21 5 8 -3 14 -1
14 4 0 6 5 10 11 10 5 0 7 -5 4 -10 -4 -6 5 -5 19 2 14 6 26 16 26 22 0 6 5 4
10 -4 7 -11 10 -11 10 -2 0 7 4 11 9 7 5 -3 16 2 24 10 17 16 32 21 23 7 -3
-5 1 -9 9 -9 8 0 16 6 19 13 3 8 12 11 22 7 13 -5 15 -3 9 8 -8 12 -6 12 8 0
11 -9 17 -10 17 -2 0 6 7 11 16 11 8 0 13 4 10 9 -8 12 27 8 36 -4 5 -6 8 -5
8 3 0 7 5 10 10 7 6 -3 10 -1 10 5 0 6 5 8 10 5 6 -3 10 -1 10 6 0 6 8 9 20 6
11 -3 20 -1 20 4 0 4 6 6 14 3 8 -3 17 0 21 5 3 6 11 9 16 6 5 -4 9 -2 9 3 0
5 6 9 13 10 27 2 46 9 61 21 13 11 16 11 16 0 0 -11 2 -11 10 1 5 8 10 11 10
6 0 -5 6 -3 13 3 8 6 17 8 20 4 4 -3 7 -1 7 6 0 7 5 9 10 6 6 -3 10 -2 10 4 0
6 7 8 15 5 8 -4 22 -1 30 6 8 6 19 9 25 5 5 -3 10 -1 10 5 0 6 4 9 8 6 5 -3
19 1 33 8 13 7 30 11 37 8 6 -2 12 2 12 9 0 7 3 9 7 6 3 -4 13 -1 21 6 13 9
14 9 8 0 -5 -9 -2 -11 8 -7 9 3 16 11 16 17 0 6 3 8 6 5 6 -7 116 36 152 60
21 14 24 14 17 2 -7 -12 -6 -13 7 -3 8 7 19 9 23 5 5 -4 5 -1 0 7 -6 11 -3 13
13 9 12 -3 20 -3 19 1 -1 3 1 6 4 6 4 0 16 9 28 19 12 11 24 16 27 13 4 -3 21
1 38 10 17 10 34 16 39 15 4 -1 7 3 7 9 0 5 5 7 11 4 5 -4 18 0 27 8 26 22 79
47 86 40 3 -4 6 -1 6 6 0 7 5 9 10 6 6 -3 10 -1 10 5 0 6 5 8 10 5 6 -3 10 -2
10 4 0 5 14 12 30 16 17 4 30 10 30 13 0 4 18 16 40 26 22 10 37 23 34 27 -2
4 4 6 14 4 10 -2 25 5 33 16 7 10 19 19 25 19 20 0 136 64 158 87 11 12 26 23
31 23 6 0 3 -5 -5 -10 -10 -7 -11 -10 -2 -10 7 0 15 7 18 15 4 8 12 15 20 15
8 0 22 9 31 19 9 11 20 18 25 15 4 -3 8 0 8 6 0 6 4 9 8 6 4 -3 25 11 46 30
39 36 51 42 41 22 -4 -7 2 -3 13 9 11 12 22 19 26 16 3 -4 6 -1 6 6 0 7 5 9
10 6 6 -3 10 -1 10 5 0 5 13 18 30 29 16 10 27 21 22 26 -4 5 -2 5 5 2 6 -4
27 8 47 27 20 18 36 28 36 22 1 -6 7 0 15 14 8 14 15 21 15 15 0 -5 7 -1 15 9
8 11 17 17 21 14 3 -3 25 13 49 37 24 23 47 40 50 37 3 -3 5 0 5 7 0 7 3 10 8
8 9 -6 33 19 25 27 -4 3 1 6 11 6 9 0 19 7 22 15 4 8 10 13 14 10 5 -3 11 4
15 15 3 11 13 20 21 20 8 0 17 7 20 15 4 8 10 12 15 9 5 -3 9 -1 9 5 0 5 9 13
21 16 11 4 18 9 16 11 -5 5 54 65 139 144 24 22 42 40 39 40 -2 0 7 12 20 26
14 15 22 31 18 37 -3 5 -2 8 3 5 5 -3 15 0 22 8 7 8 10 14 7 14 -3 0 3 8 13
18 9 11 20 17 25 15 4 -2 7 0 7 6 0 6 14 26 30 44 17 19 30 40 30 47 0 8 3 10
7 7 6 -7 49 49 51 66 1 4 15 20 32 35 16 14 30 32 30 39 0 7 5 13 10 13 6 0
10 7 10 15 0 8 5 15 12 15 6 0 8 3 5 7 -4 4 5 19 20 35 15 15 23 28 18 28 -5
0 1 9 13 20 12 12 22 27 22 35 0 8 6 15 14 15 8 0 13 8 12 17 0 10 5 17 12 15
8 -1 11 2 8 7 -4 5 1 17 10 25 8 9 12 16 8 16 -3 0 -1 7 6 15 7 8 9 15 4 16
-5 0 -1 4 9 8 10 4 17 9 16 11 -1 3 4 16 11 30 8 14 14 29 15 33 0 4 6 11 13
16 8 5 13 10 11 12 -3 6 33 83 43 89 4 3 9 16 11 29 2 12 10 27 18 32 8 5 10
9 5 9 -5 0 1 11 14 25 15 16 19 25 10 25 -9 0 -5 10 11 27 13 14 17 22 9 18
-12 -7 -13 -6 -3 7 7 8 10 18 6 21 -3 4 -1 7 6 7 8 0 11 6 7 16 -3 8 -2 12 3
9 5 -3 13 5 17 17 4 13 14 29 23 36 12 10 12 12 1 6 -8 -4 -5 3 8 15 20 20 24
28 21 47 0 4 4 10 11 14 6 4 12 16 13 28 0 11 4 19 8 16 4 -2 10 7 13 21 4 14
11 25 17 25 6 0 7 5 4 10 -3 6 -1 10 5 10 6 0 9 4 5 9 -3 6 3 14 12 20 10 6
14 11 10 11 -4 0 -2 10 5 23 6 12 13 28 14 35 1 8 11 20 21 29 10 8 11 11 3 7
-11 -6 -10 -2 3 13 9 11 14 23 10 26 -3 4 -1 7 6 7 7 0 11 6 8 13 -2 6 3 17
11 23 7 5 15 22 15 36 1 14 5 24 8 22 10 -6 30 46 23 58 -4 6 -2 8 3 5 9 -6
28 45 24 66 0 4 4 7 10 7 5 0 7 4 4 10 -3 5 -1 10 5 10 6 0 10 6 9 12 -3 24 1
39 9 35 11 -7 29 17 26 36 -1 9 2 17 7 17 5 0 8 3 7 8 -1 4 3 17 10 28 6 12 9
24 5 27 -3 4 2 9 11 13 10 4 16 17 16 35 0 16 5 29 10 29 6 0 9 3 8 8 -1 4 4
18 12 32 7 14 13 26 12 27 -5 10 13 63 21 63 6 0 7 3 4 6 -3 4 -1 16 6 28 6
11 12 26 12 31 1 6 6 20 13 32 7 13 10 23 7 23 -3 0 4 18 16 41 11 23 15 38 9
34 -7 -4 -4 4 5 19 11 16 13 26 6 26 -8 0 -8 4 1 14 7 8 16 12 19 10 3 -2 6 3
6 11 0 8 -5 15 -10 15 -6 0 -2 9 8 20 10 11 15 20 10 20 -4 0 -2 6 4 13 6 8 8
17 4 20 -3 4 -1 7 7 7 10 0 10 4 -1 17 -12 14 -12 15 0 9 10 -7 12 -3 6 13 -4
13 -2 21 5 21 6 0 9 4 6 8 -3 5 2 21 10 37 11 21 12 30 3 36 -8 4 -6 10 6 16
12 7 14 12 6 18 -8 5 -9 11 -2 19 6 7 13 23 15 37 3 13 5 26 6 29 2 3 2 8 1
13 0 4 4 7 11 7 9 0 9 3 1 11 -11 11 -11 14 18 70 8 17 8 19 -3 13 -10 -6 -10
-4 1 9 10 13 10 17 1 17 -9 0 -10 3 -1 13 6 8 8 17 4 20 -3 4 -2 7 4 7 14 0
24 38 12 46 -6 4 -6 11 0 18 6 7 12 26 14 42 2 17 6 34 9 39 3 6 4 20 3 32 -1
13 3 23 8 23 6 0 8 3 4 6 -3 3 -2 17 3 30 7 16 6 24 -1 24 -8 0 -7 5 1 15 10
12 10 15 -1 15 -10 0 -10 3 -1 12 7 7 12 22 12 34 0 12 6 25 13 27 9 4 9 8 -2
15 -9 7 -10 12 -2 16 8 5 8 13 1 26 -7 13 -7 21 1 25 5 4 9 19 8 33 -2 15 3
37 9 50 9 14 9 22 2 22 -8 0 -8 6 0 20 8 15 8 20 -2 20 -9 0 -9 3 0 12 8 8 8
17 1 30 -7 14 -7 23 2 34 9 11 9 14 -2 14 -10 0 -11 2 -2 8 7 4 13 27 14 50 2
23 7 42 11 42 5 0 4 8 -1 18 -6 10 -6 24 -1 32 5 8 6 18 4 22 -3 4 0 8 5 8 6
0 11 5 11 11 0 5 -3 8 -7 6 -5 -3 -9 6 -10 20 0 15 2 21 5 15 9 -14 6 429 -3
450 -4 9 -4 22 0 28 3 5 1 10 -6 10 -7 0 -9 3 -6 7 4 3 2 12 -4 20 -9 10 -8
13 2 13 11 0 11 2 -1 10 -8 5 -10 10 -4 10 8 0 9 13 4 40 -4 22 -5 40 -2 40 2
0 -1 6 -7 14 -9 11 -9 15 1 19 10 4 10 6 -1 6 -11 1 -11 4 -1 16 10 12 10 15
-1 15 -11 0 -11 2 1 10 12 7 12 10 1 10 -7 0 -11 6 -7 15 3 8 0 15 -7 15 -8 0
-6 4 3 10 8 5 10 10 4 10 -6 0 -9 13 -6 30 3 20 0 30 -8 30 -10 0 -10 3 0 15
10 12 10 15 0 15 -10 0 -10 3 0 15 7 9 8 15 2 15 -5 0 -13 7 -16 16 -4 10 -2
13 7 8 9 -6 9 -5 0 8 -7 8 -10 18 -6 21 3 4 1 7 -7 7 -10 0 -10 3 0 15 7 8 8
15 3 15 -5 0 -10 19 -12 42 -1 23 -5 45 -9 48 -4 3 -9 16 -10 30 -2 14 -8 26
-13 28 -5 2 -4 13 2 24 9 16 8 19 -3 12 -11 -6 -11 -5 1 9 9 12 10 17 2 17 -7
0 -9 5 -6 10 3 6 1 10 -5 10 -6 0 -8 5 -5 10 3 6 3 10 -2 10 -4 0 -9 21 -10
46 -1 25 -7 52 -14 60 -9 11 -8 14 2 14 10 1 9 4 -3 14 -10 7 -15 16 -11 19 3
4 0 14 -8 24 -9 11 -10 14 -1 9 6 -4 12 -2 12 3 0 6 -5 11 -11 11 -7 0 -9 9
-6 21 3 12 0 22 -9 26 -11 4 -12 9 -3 19 9 11 8 14 -1 14 -7 0 -10 6 -7 13 3
7 -1 21 -9 31 -7 11 -11 22 -9 26 3 4 -2 13 -10 20 -12 10 -13 16 -4 26 6 8 7
14 2 14 -5 0 -9 10 -10 22 -1 11 -8 25 -15 29 -10 7 -10 9 2 9 12 0 12 2 2 9
-7 4 -14 18 -15 29 -1 12 -5 22 -10 22 -5 0 -3 8 4 17 8 9 9 14 3 10 -7 -4
-15 0 -18 9 -3 8 -2 12 4 9 6 -3 7 1 4 9 -3 9 -10 16 -15 16 -5 0 -9 11 -9 24
0 13 -5 26 -10 28 -6 2 -12 13 -13 26 0 12 -5 22 -9 22 -4 0 -8 7 -8 15 0 8
-5 15 -11 15 -5 0 -8 4 -5 8 3 5 -1 20 -9 35 -10 20 -11 27 -2 28 7 0 3 4 -8
9 -12 5 -14 9 -6 9 11 1 10 6 -5 23 -10 12 -13 18 -6 14 11 -7 11 -4 0 13 -7
12 -16 21 -21 21 -4 0 -5 5 -2 10 3 6 0 10 -7 10 -11 0 -11 2 0 9 11 6 10 11
-3 25 -9 9 -13 16 -9 16 3 0 1 6 -5 14 -7 8 -14 24 -16 36 -2 13 -12 31 -21
41 -10 11 -13 19 -8 19 5 0 0 7 -10 15 -14 11 -16 15 -5 15 11 1 10 4 -3 14
-10 7 -18 23 -18 35 0 11 -5 21 -11 21 -5 0 -8 4 -5 9 7 10 -18 34 -26 26 -3
-3 -5 2 -5 12 0 35 -3 44 -13 38 -5 -3 -7 0 -4 8 3 8 -2 20 -10 27 -9 7 -13
16 -10 21 3 5 0 9 -5 9 -6 0 -11 7 -11 15 0 8 -9 20 -19 27 -10 6 -17 18 -14
25 3 7 0 13 -6 13 -10 0 -57 80 -52 88 1 2 -9 14 -23 27 -13 12 -22 26 -19 29
4 3 -1 14 -10 24 -10 10 -14 22 -10 25 3 4 -1 7 -10 7 -8 0 -19 9 -22 20 -3
11 -11 20 -16 20 -6 0 -8 4 -5 8 3 5 -4 15 -15 22 -10 8 -19 18 -19 23 0 5 -7
15 -15 24 -8 8 -13 18 -10 23 3 5 -4 11 -15 15 -11 4 -18 11 -15 16 4 5 1 9
-5 9 -6 0 -8 5 -5 10 3 6 1 10 -4 10 -6 0 -11 6 -11 13 0 7 -8 20 -17 29 -30
28 -42 46 -36 52 4 3 0 6 -7 6 -7 0 -11 3 -8 6 4 3 -8 19 -24 35 -17 16 -27
29 -22 29 5 0 4 4 -1 8 -6 4 -30 31 -53 61 -23 29 -42 50 -42 45 0 -5 -9 6
-20 24 -11 18 -27 35 -35 38 -8 4 -12 10 -9 15 3 5 -2 12 -10 15 -9 3 -16 13
-16 21 0 8 -4 12 -8 9 -4 -2 -14 9 -21 25 -7 17 -16 28 -18 25 -7 -7 -43 38
-43 53 0 6 -7 11 -16 11 -8 0 -12 5 -9 10 3 6 -1 10 -9 10 -8 0 -17 9 -21 20
-3 11 -12 19 -18 17 -7 -1 -11 3 -10 9 1 6 -9 17 -22 24 -14 7 -25 18 -25 24
0 11 -111 124 -120 123 -3 -1 -24 18 -47 42 -24 23 -43 39 -43 35 0 -4 -7 1
-16 12 -8 10 -12 12 -8 4 7 -13 6 -13 -12 0 -10 8 -23 21 -27 28 -5 7 -12 10
-18 7 -5 -4 -9 -1 -9 5 0 6 -4 9 -9 5 -5 -3 -12 -1 -16 5 -4 6 -11 8 -16 5 -5
-4 -9 -1 -9 4 0 6 -7 11 -15 11 -8 0 -15 5 -15 10 0 6 -7 10 -15 10 -8 0 -15
5 -15 10 0 6 -6 10 -13 10 -8 0 -20 11 -27 25 -7 13 -17 22 -21 19 -4 -2 -19
7 -33 21 -14 14 -26 23 -26 19 0 -5 -7 1 -15 12 -8 10 -15 16 -15 12 0 -5 -9
0 -19 10 -44 41 -73 62 -85 62 -6 0 -18 9 -26 19 -7 11 -17 18 -22 15 -4 -3
-11 2 -14 10 -3 9 -10 13 -15 10 -5 -3 -9 0 -9 6 0 6 -4 9 -9 5 -5 -3 -17 5
-25 17 -9 12 -16 19 -16 14 0 -5 -6 -3 -13 3 -8 6 -17 8 -20 4 -4 -3 -7 -1 -7
5 0 7 -6 12 -14 12 -8 0 -17 7 -20 16 -3 8 -10 12 -16 9 -5 -3 -10 -1 -10 5 0
6 -4 9 -8 6 -5 -3 -20 6 -35 20 -15 14 -27 22 -27 18 0 -3 -7 -1 -15 6 -12 10
-15 10 -15 -1 0 -9 -9 -4 -23 11 -12 14 -29 26 -37 28 -8 2 -24 11 -34 20 -11
9 -16 11 -12 4 7 -11 4 -11 -13 0 -12 7 -21 16 -21 19 0 4 -10 5 -22 1 -13 -3
-19 -1 -15 5 4 6 0 14 -9 17 -10 4 -13 2 -9 -7 4 -6 1 -5 -7 4 -7 9 -19 14
-25 12 -7 -3 -13 0 -13 7 0 6 -4 8 -10 5 -5 -3 -10 -1 -10 4 0 6 -7 11 -15 11
-8 0 -15 4 -15 10 0 5 -6 7 -14 4 -8 -3 -17 0 -21 5 -3 6 -11 9 -16 6 -5 -4
-9 -1 -9 4 0 6 -9 11 -20 11 -11 0 -20 4 -20 10 0 5 -7 7 -15 4 -8 -4 -15 -1
-15 6 0 6 -4 8 -10 5 -5 -3 -10 0 -10 7 0 9 -3 9 -10 -2 -6 -10 -10 -11 -10
-2 0 6 -9 12 -20 12 -11 0 -20 4 -20 8 0 4 -12 9 -27 10 -16 1 -30 7 -31 12
-2 6 -7 8 -12 5 -5 -3 -16 2 -25 11 -11 12 -19 14 -27 6 -7 -7 -17 -5 -31 9
-15 14 -24 16 -34 8 -10 -9 -13 -8 -13 4 0 9 -9 16 -20 16 -11 1 -29 1 -40 2
-11 0 -20 5 -20 10 0 6 -4 7 -10 4 -5 -3 -10 0 -10 7 0 11 -2 11 -9 0 -6 -10
-10 -10 -21 2 -7 9 -16 13 -22 10 -5 -3 -15 -1 -23 6 -10 8 -15 8 -20 0 -5 -8
-13 -6 -26 6 -21 19 -53 29 -43 13 3 -5 0 -9 -5 -9 -6 0 -11 5 -11 11 0 8 -6
7 -17 -2 -14 -12 -15 -12 -9 -1 7 11 4 12 -13 3 -14 -8 -21 -8 -21 -1 0 8 -6
8 -20 0 -15 -8 -20 -8 -20 1 0 9 -3 9 -14 0 -8 -7 -16 -8 -18 -3 -1 5 -16 12
-31 16 -19 4 -26 3 -22 -4z"/>
</g>
</svg>
